<?xml version="1.0" encoding="UTF-8"?>
<svg version="1.1" viewBox="0 0 2048 930" width="1280" height="1280" xmlns="http://www.w3.org/2000/svg">
<path transform="translate(0)" d="m0 0h2048v930h-2048z" fill="#FDFCFC"/>
<path transform="translate(151,93)" d="m0 0h1640l1 1v561l-1 2h-1181l-290-1h-177l-1-36v-526z" fill="#4331AC"/>
<path transform="translate(160,111)" d="m0 0h455l1 1v525l-1 1h-455z" fill="#FEFDFD"/>
<path transform="translate(290,201)" d="m0 0h92l25 1 17 3 17 6 17 9 12 9 12 11 13 17 10 18 7 19 3 19v22l-3 19-5 15-8 16-7 11-8 10-12 12-14 10-5 2 7 11 11 15 26 39 9 12 8 10 6 6 14 1 8 4 6 7 4 11-2 10-6 9-7 4-5 2h-12l-14-3-12-5-12-11-9-10-22-32-24-34-13-18-9-8-7-2-16-2-8-6-5-8-1-3v-9l4-9 8-7 4-2 24-3 15-5 14-8 12-11 9-13 6-13 3-11 1-7v-14l-4-17-8-16-8-11-7-7-14-9-11-5-11-3-8-1h-110v298l-2 12-6 8-8 4-3 1h-7l-9-3-9-8-2-5-1-9v-298l1-30 4-8 7-6 4-2z" fill="#300751"/>
<path transform="translate(1285,307)" d="m0 0h36l17 1 8 3 7 8 2 5v10l-3 8-2 3v5h2l5 7 1 8-2 8-6 8-5 4-3 1h-77l-3-5v-73z" fill="#FEFDFD"/>
<path transform="translate(736,307)" d="m0 0h30l12 2 10 6 6 9 2 4v15l-4 8-6 7-8 6 2 5 9 10 7 7 15 10 19 9 13 4 18 3 24 1 2 2-1 5-3 2h-24l-19-4-20-7-17-9-12-9-10-9-8-8-7-11h-24l-1 19-2 2h-6l-2-2-1-54 1-21z" fill="#FEFDFD"/>
<path transform="translate(902,336)" d="m0 0h10l12 6 6 7 2 5 3 1h9v-7l3-6 6-4 3-1h9l8 3 2 3-1 5-17-1-3 1 1 5 3 2 12 3 6 4 3 5v8l-4 6-5 4-8 2-9-1-6-4-2-4v-3l-13 4-5-1h-1l-4 5-8 4h-12l-10-5-6-8-3-7v-11l5-10 8-7z" fill="#4941C2"/>
<path transform="translate(922,725)" d="m0 0 5 1-2 11-8 35 1 4 9-3 1-1h5l1 4-1 38-1 3-7-1-2-2-1-8 3-28v-2l-8 4-3 7-5 25-1 12-3 1h-8l1-11 6-31-16 6-9 3-1 16-2 18-1 1h-8l2-24v-6l-8 5h-7l2-4 11-6h2l2-20 6-34 3-8 2-2h5l-1 11-6 47 23-9 4-16 8-29 2-5z" fill="#4941C2"/>
<path transform="translate(1530,321)" d="m0 0 5 1 1 11v43l-2 8h-9l-6 2h-16l-8-4-7-8-3-8v-10l4-8 5-5 5-4 10-3 11 2 7 3v-18z" fill="#FEFDFD"/>
<path transform="translate(1016,716)" d="m0 0 5 1-1 9-7 19-3 9 4-3 4-1h9l4 4 1 4v21l-4 13-6 9-8 7-2 1h-9l-5-5-5-13h-2l-4 14-4 6-2 2h-8l-4-5v-17l5-16v-3l-5 5-9 15-7 16-3 5-5 1-2-3v-14l-2-7v-7l2-7 5-2 1 1v26l8-13 10-16 10-11 5 1-3 21-3 13v11l5-2 5-10 3-5 8-6 7-10 4-5h4l-3 9-8 12v8l2 3 7-1 6-7 5-11 3-12v-11l-2-3h-7l-7 2h-6l1-6 7-19 3-6 1-5-8 7-5 2h-3l2-4z" fill="#4941C2"/>
<path transform="translate(1164,336)" d="m0 0h11l10 5 5 4 5 10v8l-6 15-8 7-7 2h-10l-8-4-7-8-4-10v-7l4-10 7-8z" fill="#FEFDFD"/>
<path transform="translate(802,653)" d="m0 0h366l6 1 423 1v1l-455 1h-532v-1l195-1z" fill="#4941C2"/>
<path transform="translate(1272,352)" d="m0 0h66l7 3 4 6v7l-7 8-3 1h-67z" fill="#4331AC"/>
<path transform="translate(1272,317)" d="m0 0h64l7 3 3 4 1 7-3 6-5 4-3 1h-63l-1-1z" fill="#4331AC"/>
<path transform="translate(742,316)" d="m0 0h25l9 2 7 5 4 7v11l-3 6-8 7-11 2h-19l-4-2-1-2v-34z" fill="#4331AD"/>
<path transform="translate(1073,337)" d="m0 0h7l10 5v2l5-1 5-4 5-2h10l8 4 4 5 3 8 1 8v23l-1 1-7-1-1-1-1-29-3-6-6-3-7 1-5 3-1 2-1 32-2 2-7-1-1-1v-29l-4-6-4-2h-8l-7 4-1 2-1 31-2 2-6-1-1-2v-24l1-19 1-1 13-1z" fill="#FEFDFD"/>
<path transform="translate(902,336)" d="m0 0h10l12 6 6 7 3 10-1 4-1 1-35 1-2 1 2 6 5 5 9 1 7-4 9-6h2l-2 10-4 5-8 4h-12l-10-5-6-8-3-7v-11l5-10 8-7z" fill="#FEFDFD"/>
<path transform="translate(1572,336)" d="m0 0h7l10 4 8 7 4 11-1 6-4 1h-33l-1 3 4 7 4 2h11l8-6 7-4 1 2-3 9-4 5-9 4h-11l-8-4-8-9-3-9 1-11 6-10 8-6z" fill="#FEFDFD"/>
<path transform="translate(998,336)" d="m0 0h5l2 2 1 28 3 8 6 3 9-1 4-5 2-6 1-28 6-1 2 2 1 5v19l-2 10-5 8-6 5-3 1h-13l-6-3-6-7-3-8-1-8v-20z" fill="#FEFDFD"/>
<path transform="translate(1376,335)" d="m0 0 5 1 1 26 2 9 5 5 7 1 6-3 4-8v-27l2-3h7l1 5v21l-2 12-4 6-5 4-4 2-8 1-10-3-5-4-4-8-1-5-1-25 1-5z" fill="#FEFDFD"/>
<path transform="translate(956,337)" d="m0 0h9l8 3 2 3-1 5-17-1-3 1 1 5 3 2 12 3 6 4 3 5v8l-4 6-5 4-8 2-9-1-6-4-2-6 1-1 9 1 2 1h7l4-2 1-7-3-2-12-3-8-5-2-3v-7l3-6 6-4z" fill="#FEFDFD"/>
<path transform="translate(1507,345)" d="m0 0h7l8 4 5 6 1 6-3 9-7 6-4 2h-8l-7-4-5-8-1-7 4-8 7-5z" fill="#4941C2"/>
<path transform="translate(1637,337)" d="m0 0 6 1 1 4-3 4-15 4-1 1-1 34-5 1-3-2-1-7v-37l1-1z" fill="#FEFDFD"/>
<path transform="translate(977,761)" d="m0 0 5 1-3 21-1 4h-2l-1-6-3 4 2-13-5 5-9 15-7 16-3 5-5 1-2-3v-14l-2-7v-7l2-7 5-2 1 1v26l8-13 10-16z" fill="#4941C2"/>
<path transform="translate(1460,323)" d="m0 0h8l-1 62-1 1-7-1-1-3v-58z" fill="#FEFDFD"/>
<path transform="translate(1437,337)" d="m0 0h4v48h-8l-1-1v-45z" fill="#FEFDFD"/>
<path transform="translate(928,772)" d="m0 0h5l1 4-1 38-1 3-7-1-2-2-1-8 3-28v-2l-7 2 1-2z" fill="#4A42C3"/>
<path transform="translate(1563,364)" d="m0 0h36l3 5-2 5h-4v-6l-10 6-5 4h-11l-5-3-4-7z" fill="#4941C2"/>
<path transform="translate(784,360)" d="m0 0 5 1 1 9 3 6 4 6 11 8 10 7 11 5 16 5 16 3-2 2-11-1-15-4-16-7-11-6-12-9-13-13-4-6 1-3 4-2z" fill="#4941C2"/>
<path transform="translate(1158,364)" d="m0 0h33v3l-14 10-3 1h-10l-6-4-3-5 1-4z" fill="#4941C2"/>
<path transform="translate(976,342)" d="m0 0h1v5h2l6 8-1 5-3 2-5-1-13-4-7-2-3-3 1-5 3-1h7l10 1z" fill="#4941C2"/>
<path transform="translate(1272,355)" d="m0 0h2l1 19h3v2l35-1 14-1h8l4-4 3-7 4-1 1-3 2 2v7l-7 8-3 1h-67z" fill="#4941C2"/>
<path transform="translate(1030,338)" d="m0 0h1v27l-3 8-4 4-9 1-6-3-3-5-1-4v-17h1v14l3-1 2 6 10 1 4-4 4-7v-16z" fill="#4941C2"/>
<path transform="translate(1572,345)" d="m0 0h9l6 4 3 3 1 4h-29l1-5 6-5z" fill="#4941C2"/>
<path transform="translate(1166,345)" d="m0 0h8l6 3 4 4 1 4-25 1-5-1 4-7z" fill="#4940C0"/>
<path transform="translate(904,345)" d="m0 0h8l6 3 4 4v4h-27l-1-3 5-6z" fill="#4941C1"/>
<path transform="translate(977,761)" d="m0 0 5 1-3 21-1 4h-2l-1-6-3 4 2-13-5 4-4 1 2-5z" fill="#4637B3"/>
<path transform="translate(946,774)" d="m0 0 3 1v22l-2 5h-2l-4-12v-7l2-7z" fill="#4940C0"/>
<path transform="translate(1016,716)" d="m0 0 5 1-1 9-3 7-2-4-5 9-1-3 4-8 1-5-8 7-5 2h-3l2-4z" fill="#483EBD"/>
<path transform="translate(882,728)" d="m0 0h5l-1 11-1 9h-2l-1-5v-12l-2 5-5 25h-1l1-13 4-17z" fill="#4434B1"/>
<path transform="translate(1272,355)" d="m0 0h2l1 19h3v2l34-1 1 2h-41z" fill="#4A42C3"/>
<path transform="translate(1507,345)" d="m0 0h7l8 4 3 3-1 2-5-4h-9l-9-1 3-3z" fill="#4435B1"/>
<path transform="translate(1345,324)" d="m0 0 2 4-1 6-5 6-5 2h-5l-1-2 10-3 2-5z" fill="#4941C2"/>
<path transform="translate(1386,371)" d="m0 0 8 1h7l1 3-6 3-7-1-2-2z" fill="#4A42C3"/>
<path transform="translate(500,563)" d="m0 0 9 2 13 3 10 2v1h-12l-11-2-1-2-8-3z" fill="#4535B2"/>
<path transform="translate(837,406)" d="m0 0 8 1 16 3-2 2-11-1-12-3z" fill="#483EBE"/>
<path transform="translate(1009,721)" d="m0 0h2l-1 4-5 5-7 1 2-4z" fill="#473BBA"/>
<path transform="translate(1352,341)" d="m0 0 3 1 2 7-5 3v-2h-2l-1-5z" fill="#4A42C3"/>
<path transform="translate(1015,722)" d="m0 0 2 3 2-1-1 8-2 1-1-4-5 9-1-3z" fill="#4434B0"/>
<path transform="translate(1166,345)" d="m0 0h8l5 2-1 2-5-1-12 1 3-3z" fill="#4434B1"/>
<path transform="translate(741,327)" d="m0 0h1v22h2l1 5h-3l-1-2z" fill="#4A42C3"/>
<path transform="translate(823,400)" d="m0 0 12 4 2 1v2l-7-1-7-3z" fill="#4940C0"/>
<path transform="translate(1572,345)" d="m0 0h9l5 3-1 2-4-2h-13l1-2z" fill="#4536B2"/>
<path transform="translate(865,797)" d="m0 0 2 1-6 4h-7l2-4 3 1z" fill="#4435B2"/>
<path transform="translate(1518,336)" d="m0 0h8l1 5-10-3z" fill="#493FBF"/>
<path transform="translate(1559,339)" d="m0 0 4 1-6 7-2-1 1-5z" fill="#4940C1"/>
</svg>
