<!--?xml version="1.0" standalone="no"?-->
              <svg id="sw-js-blob-svg" viewBox="0 0 100 100" xmlns="http://www.w3.org/2000/svg" version="1.1">
                    <defs> 
                        <linearGradient id="sw-gradient" x1="0" x2="1" y1="1" y2="0">
                            <stop id="stop1" stop-color="rgba(13.047, 255, 234.51, 1)" offset="0%"></stop>
                            <stop id="stop2" stop-color="rgba(31, 217.464, 251, 1)" offset="100%"></stop>
                        </linearGradient>
                    </defs>
                <path fill="url(#sw-gradient)" d="M22,-38.8C28,-34.8,31.7,-27.6,35.5,-20.6C39.2,-13.7,43,-6.8,43,0C43,6.8,39.3,13.7,35.2,20C31,26.4,26.5,32.2,20.6,36.1C14.6,40.1,7.3,42.2,-0.3,42.7C-8,43.3,-16,42.4,-22.6,38.9C-29.3,35.4,-34.7,29.2,-38,22.3C-41.2,15.4,-42.5,7.7,-43,-0.3C-43.6,-8.3,-43.4,-16.6,-40.3,-23.8C-37.1,-31,-31,-37,-23.8,-40.3C-16.6,-43.5,-8.3,-44,-0.1,-43.8C8.1,-43.6,16.1,-42.8,22,-38.8Z" width="100%" height="100%" transform="translate(50 50)" stroke-width="0" style="transition: 0.3s;"></path>
              </svg>